<svg xmlns="http://www.w3.org/2000/svg" width="681.7343575613838" height="553.7812423706054" viewBox="0 0 681.7343575613838 553.7812423706054">

  <defs>
    <style>
      text { font-family: system-ui, -apple-system, "Segoe UI", sans-serif; font-size: 12px; fill: #111827; }
      .shape-rect { fill: #ffffff; stroke: #9ca3af; stroke-width: 1; }
      .shape-entity { fill: #ffffff; stroke: #111827; stroke-width: 2; }
      .shape-circle { fill: #ffffff; stroke: #9ca3af; stroke-width: 1; }
      .shape-pill { fill: #ffffff; stroke: #9ca3af; stroke-width: 1; }
      .shape-db { fill: #ffffff; stroke: #9ca3af; stroke-width: 1; }
      .conn { stroke: #111827; stroke-width: 2; fill: none; }
    </style>
    <marker id="arrow-end" markerWidth="10" markerHeight="7" refX="10" refY="3.5"
            orient="auto" markerUnits="strokeWidth">
      <polygon points="0 0, 10 3.5, 0 7" fill="#111827"/>
    </marker>
    <marker id="arrow-start" markerWidth="10" markerHeight="7" refX="0" refY="3.5"
            orient="auto" markerUnits="strokeWidth">
      <polygon points="10 0, 0 3.5, 10 7" fill="#111827"/>
    </marker>
  </defs>
        
<rect class="shape-entity" x="256.8437412806919" y="314.78125980922147" width="160.21876743861603" height="198.9999825613839" />
<line x1="256.8437412806919" y1="343.78126416887545" x2="417.06250871930797" y2="343.78126416887545" stroke="#e5e7eb" stroke-width="1"/>
<text x="336.95312499999994" y="333.7812598092214" text-anchor="middle">Producto</text>
<text x="283.84374999999994" y="363.2812619890485">id</text>
<text x="283.84374999999994" y="386.2812380109514">nombre_producto</text>
<text x="283.84374999999994" y="409.28122493198936">descripcion</text>
<text x="283.84374999999994" y="432.2812336512974">precio</text>
<text x="283.84374999999994" y="455.2812205723353">stock</text>
<text x="283.84374999999994" y="478.28122929164334">imagen</text>
<rect class="shape-entity" x="40" y="40" width="159.99999999999997" height="199.00000435965396" />
<line x1="40" y1="68.99999891008649" x2="199.99999999999997" y2="68.99999891008649" stroke="#e5e7eb" stroke-width="1"/>
<text x="119.99999999999999" y="58.99999999999999" text-anchor="middle">Cliente</text>
<text x="74.09375435965404" y="88.49999400547573">id</text>
<text x="74.09375435965404" y="111.49999455043245">nombre_cliente</text>
<text x="74.09375435965404" y="134.5000032697405">apellidos</text>
<text x="74.09375435965404" y="157.49999019077842">email</text>
<text x="74.09375435965404" y="180.49999891008645">direccion</text>
<text x="74.09375435965404" y="203.50000762939447">telefono</text>
<rect class="shape-entity" x="255.82811628069192" y="113.98438044956748" width="159.99999999999997" height="129.99999999999997" />
<line x1="255.82811628069192" y1="142.9843630109514" x2="415.8281162806919" y2="142.9843630109514" stroke="#e5e7eb" stroke-width="1"/>
<text x="335.8281162806919" y="132.98436955043243" text-anchor="middle">Pedido</text>
<text x="307.51562499999994" y="162.48438262939447">id</text>
<text x="307.51562499999994" y="185.48436955043246">fecha</text>
<text x="307.51562499999994" y="208.4843782697405">cliente_id</text>
<rect class="shape-entity" x="481.73435756138383" y="199.57812173025943" width="159.99999999999997" height="152.9999869210379" />
<line x1="481.73435756138383" y1="228.57812608991344" x2="641.7343575613838" y2="228.57812608991344" stroke="#e5e7eb" stroke-width="1"/>
<text x="561.7343575613838" y="218.57812173025943" text-anchor="middle">LineasPedido</text>
<text x="526.2031075613838" y="248.07812391008645">id</text>
<text x="526.2031075613838" y="271.0781326293945">pedido_id</text>
<text x="526.2031075613838" y="294.0781195504324">cantidad</text>
<text x="526.2031075613838" y="317.07812826974043">producto_id</text>
<path class="conn" d="M 287.86396113250555 199.4843673706054 L 185.54228014818636 89.49999673025948" marker-end="url(#arrow-end)" />
<path class="conn" d="M 506.20313371930797 262.96666909116067 L 384.1406249999999 162.59582436935818" marker-end="url(#arrow-end)" />
<path class="conn" d="M 506.20313371930797 315.2546231861135 L 410.06251743861594 357.10474527440533" marker-end="url(#arrow-end)" />
</svg>